<svg width="565" height="600" viewBox="0 0 565 600" fill="none" xmlns="http://www.w3.org/2000/svg">
<path d="M565.001 597.067L105.314 599.458L0 600L46.7085 506.094L94.876 463.541L160.56 442.999L190.964 401.432H329.15L383.29 446.786L464.286 473.198L511.607 517.833L512.731 519.505L563.569 594.954L565.001 597.067Z" fill="#333333"/>
<path opacity="0.1" d="M563.569 594.954L528.392 591.197L445.676 536.421L342.286 520.766L310.177 476.015L305.547 443.483L263.566 432.827L247.322 401.432H329.149L383.29 446.786L464.286 473.198L511.607 517.833L512.731 519.505L563.569 594.954Z" fill="white"/>
<path d="M192.917 470.88L124.799 510.984L105.314 599.458L0 600L46.7085 506.094L94.876 463.541L160.56 442.999L190.964 401.432L192.917 470.88Z" fill="#222222"/>
<path d="M302.361 385.877L302.489 374.46L286.041 375.629L285.569 385.063C291.096 386.167 296.755 386.442 302.361 385.877Z" fill="#CF8A5B"/>
<path d="M320.173 401.364C315.711 394.016 309.61 391.566 302.328 390.648L302.361 385.884C296.753 386.448 291.092 386.174 285.563 385.069L284.744 401.37L320.173 401.364Z" fill="white"/>
<path d="M220.689 386.989L219.184 390.446C211.902 391.364 205.383 395.317 199.401 401.364H233.92L237.575 387.032C231.987 388.008 226.272 387.994 220.689 386.989Z" fill="white"/>
<path d="M237.597 387.032L240.521 375.629L225.974 374.849L220.689 386.989C226.279 387.996 232.002 388.011 237.597 387.032Z" fill="#CF8A5B"/>
<path d="M309.958 208.537C318.62 265.208 316.165 321.622 304.14 378.554H283.449C285.919 341.6 287.808 297.675 282.027 268.588L242.555 379.04H219.961L257.2 221.794L269.993 196.577L300.016 192.937L309.958 208.537Z" fill="url(#paint0_linear_1127_5)"/>
<path d="M337.498 87.6495L343.06 70.883L358.113 74.4163C359.246 80.0317 352.481 88.5497 347.452 94.9305L337.498 87.6495Z" fill="#CF8A5B"/>
<path d="M286.745 147.499L269.411 147.704L267.69 124.884L267.489 122.153L284.899 121.997L285.517 130.656L286.745 147.499Z" fill="#CF8A5B"/>
<path d="M285.423 129.094C279.748 133.167 272.326 130.625 267.69 124.897L267.489 122.165L284.899 122.009L285.423 129.094Z" fill="#AE744B"/>
<path d="M281.375 127.172C272.579 129.192 262.759 123.522 258.884 115.99L258.36 102.457L263.282 95.4388L284.226 97.2514C284.128 97.2759 284.141 97.5576 284.226 98.072C284.47 99.3824 285.274 102.175 286.017 105.543C287.832 113.749 289.306 125.347 281.375 127.172Z" fill="#CF8A5B"/>
<path d="M266.639 138.865C266.639 138.865 279.572 149.275 290.82 134.444L312.141 205.677C299.078 214.954 282.563 218.16 262.746 215.554L266.639 138.865Z" fill="white"/>
<g opacity="0.3">
<path d="M269.411 147.704C271.171 148.335 273.001 148.753 274.86 148.947C276.676 149.151 278.512 149.078 280.306 148.73C282.1 148.401 283.832 147.791 285.438 146.924C286.285 146.55 287.022 145.981 287.826 145.503C288.63 145.025 289.312 144.361 290.117 143.828C289.524 144.584 288.893 145.309 288.225 145.999C287.491 146.611 286.803 147.322 285.95 147.802C284.315 148.901 282.474 149.651 280.54 150.007C276.674 150.747 272.672 149.919 269.411 147.704Z" fill="black"/>
</g>
<path d="M336.917 84.5296C325.217 104.389 313.808 121.841 303.494 130.151C301.948 131.364 300.012 131.965 298.054 131.838C294.174 131.636 290.172 132.11 285.712 133.173C286.647 168.806 290.01 201.816 302.069 222.051C309.333 219.945 318.145 216.558 323.018 212.431C319.059 198.892 314.356 179.48 310.862 162.523L349.527 93.1119L336.917 84.5296Z" fill="black"/>
<path d="M286.005 105.555C272.691 113.173 261.638 99.2937 261.638 99.2937L284.226 98.0843C284.482 99.3948 285.274 102.187 286.005 105.555Z" fill="#AE744B"/>
<path d="M261.854 113.387C263.487 111.266 264.233 107.702 262.768 100.528C267.617 106.039 274.826 107.331 285.396 102.607C285.396 102.607 292.27 99.9031 290.696 92.8579C289.276 86.4893 283.973 83.109 279.834 88.311C270.447 85.5554 261.214 85.0594 257.078 93.6386C257.078 93.6386 243.89 100.528 255.138 111.703L261.854 113.387Z" fill="url(#paint1_linear_1127_5)"/>
<path d="M233.409 226.898C233.022 227.44 231.599 238.432 231.599 238.432C231.599 238.432 225.261 244.406 229.528 248.071C233.795 251.736 238.97 251.598 241.425 248.882C242.281 246.231 242.339 243.126 241.294 239.391L243.752 227.174L233.409 226.898Z" fill="#CF8A5B"/>
<path d="M368.015 82.7875L346.453 95.9288L345.488 88.3079L361.741 78.403L368.015 82.7875Z" fill="#6F3428"/>
<path d="M356.38 81.6729L350.848 85.0409L337.724 66.2873L345.908 61.2996L356.38 81.6729Z" fill="#BB9132"/>
<path d="M347.017 60.6383L336.63 66.9671C335.505 67.6527 334.172 67.9086 332.875 67.6883C331.577 67.468 330.402 66.786 329.564 65.7669L312.184 44.6403L338.628 28.5259L349.225 53.786C349.736 55.0045 349.794 56.367 349.388 57.625C348.983 58.8829 348.141 59.9524 347.017 60.6383Z" fill="#FBC343"/>
<path d="M345.741 47.3102L344.309 46.7131C348.299 37.0562 347.605 29.2087 344.674 27.4788C343.152 26.5786 341.035 27.6411 338.887 30.3906L337.669 29.4261C341.492 24.5547 344.397 25.5008 345.469 26.1346C349.03 28.2412 350.111 36.7377 345.741 47.3102Z" fill="#FBC343"/>
<path d="M325.05 59.9371C313.704 58.942 306.711 54.0462 306.504 49.8882C306.443 48.642 306.951 45.6017 313.013 44.4596L313.302 45.9905C309.878 46.6427 307.966 48.0327 308.054 49.8086C308.221 53.2225 314.822 57.4632 325.184 58.3817L325.05 59.9371Z" fill="#FBC343"/>
<path opacity="0.6" d="M334.684 42.206C333.77 40.62 333.819 38.8778 334.788 38.3175C335.756 37.7571 337.279 38.5869 338.19 40.1699C339.101 41.7528 339.055 43.4981 338.086 44.0584C337.118 44.6187 335.595 43.792 334.684 42.206Z" fill="white"/>
<path d="M358.101 74.0215C358.478 76.7221 356.779 79.1379 353.194 79.1379C350.955 79.1379 347.815 76.0485 347.157 72.3804C346.612 69.3553 347.766 67.3713 349.898 66.4925C352.073 65.5893 357.388 68.9236 358.101 74.0215Z" fill="#CF8A5B"/>
<path d="M289.521 24.8788L288.788 27.215L307.668 33.1954L308.401 30.8592L289.521 24.8788Z" fill="#17EEEF"/>
<path d="M329.882 -2.42431e-05L326.442 19.5928L328.842 20.0186L332.282 0.425741L329.882 -2.42431e-05Z" fill="#A1FF3E"/>
<path d="M306.179 5.21175L304.127 6.53217L314.796 23.2896L316.848 21.9692L306.179 5.21175Z" fill="white"/>
<path d="M255.778 183.319L252.674 230.373C270.002 229.593 281.64 223.873 281.64 223.873C283.145 195.79 279.557 164.364 268.497 136.103C240.414 146.593 232.492 181.354 228.325 233.01L244.773 234.929L255.778 183.319Z" fill="black"/>
<path d="M262.113 118.072C256.831 119.967 253.453 119.539 253.173 114.462C253.012 111.55 255.997 109.23 258.628 110.46C259.771 110.993 260.837 111.991 261.854 113.394L262.113 118.072Z" fill="#CF8A5B"/>
<path d="M307.344 146.464C308.042 148.699 308.651 150.953 309.239 153.2C309.827 155.448 310.375 157.729 310.905 160C311.435 162.272 311.922 164.553 312.364 166.844C312.805 169.134 313.232 171.436 313.552 173.751L312.942 173.889C312.227 171.66 311.624 169.403 311.027 167.153C310.43 164.902 309.897 162.628 309.385 160.353C308.873 158.078 308.377 155.797 307.947 153.5C307.518 151.204 307.073 148.907 306.729 146.599L307.344 146.464Z" fill="black"/>
<path d="M256.597 167.474C256.676 169.737 256.661 171.994 256.627 174.25C256.594 176.507 256.514 178.763 256.42 181.017C256.326 183.27 256.188 185.521 256.003 187.771C255.817 190.022 255.619 192.269 255.305 194.507L254.696 194.48C254.598 192.217 254.62 189.96 254.644 187.701C254.669 185.441 254.763 183.191 254.876 180.937C254.988 178.684 255.116 176.433 255.314 174.186C255.512 171.939 255.695 169.688 255.99 167.45L256.597 167.474Z" fill="black"/>
<path d="M278.25 278.364C278.947 275.789 279.73 273.248 280.537 270.71C281.344 268.172 282.213 265.661 283.047 263.132C283.928 260.621 284.83 258.119 285.752 255.624C286.699 253.138 287.656 250.655 288.725 248.209L289.297 248.411C288.618 250.992 287.826 253.533 287.031 256.065C286.236 258.597 285.365 261.117 284.5 263.634C283.586 266.132 282.73 268.652 281.759 271.135C280.787 273.619 279.855 276.105 278.807 278.557L278.25 278.364Z" fill="white"/>
<path d="M258.948 115.249C258.674 114.866 258.424 114.474 258.156 114.11C257.915 113.755 257.634 113.43 257.319 113.139C257.215 113.014 257.081 112.919 256.929 112.862C256.777 112.805 256.613 112.789 256.454 112.815C256.149 112.855 255.814 113.201 255.458 113.488L255.153 113.299C255.351 112.845 255.583 112.337 256.186 112.074C256.789 111.811 257.532 112.108 257.904 112.469C258.625 113.191 259.103 114.121 259.271 115.13L258.948 115.249Z" fill="#AE744B"/>
<path d="M346.941 74.8267C347.504 72.6834 347.215 70.733 346.289 70.4881C345.363 70.2431 343.943 71.2504 343.38 73.3998C342.816 75.5492 342.162 78.6478 343.621 79.3398C346.203 80.5676 346.374 76.9791 346.941 74.8267Z" fill="#CF8A5B"/>
<defs>
<linearGradient id="paint0_linear_1127_5" x1="219.961" y1="286.016" x2="315.11" y2="286.016" gradientUnits="userSpaceOnUse">
<stop stop-color="#17EEEF"/>
<stop offset="1" stop-color="#7CFC00"/>
</linearGradient>
<linearGradient id="paint1_linear_1127_5" x1="250.596" y1="99.5785" x2="290.928" y2="99.5785" gradientUnits="userSpaceOnUse">
<stop stop-color="#17EEEF"/>
<stop offset="1" stop-color="#7CFC00"/>
</linearGradient>
</defs>
</svg>
