<svg width="659" height="332" viewBox="0 0 659 332" fill="none" xmlns="http://www.w3.org/2000/svg">
<path opacity="0.8" d="M658.866 87.9298C655.727 35.5616 599.819 -3.68163 533.99 0.274709C478.198 3.62775 433.2 36.9406 422.684 78.9008C411.815 71.7761 398.009 67.8896 383.21 68.7802C362.555 70.0114 344.917 80.2429 335.093 94.7303C318.213 84.191 293.19 78.314 265.662 79.9556C234.831 81.8065 208.255 92.6537 193.3 107.564C183.424 95.703 168.47 88.5495 152.171 89.5304C134.66 90.5811 119.796 100.772 111.714 115.329C97.9727 113.724 82.4816 114.865 66.7159 119.232C22.8654 131.38 -6.46114 163.773 1.22294 191.587C6.41124 210.384 27.1849 222.265 53.6387 224.251L60.0933 332L634.367 297.509L626.052 158.693C647.739 140.068 660.46 114.898 658.866 87.9298Z" fill="white"/>
</svg>
