<svg width="663" height="308" viewBox="0 0 663 308" fill="none" xmlns="http://www.w3.org/2000/svg">
<path opacity="0.8" d="M0.0035197 94.01C0.503623 41.4582 54.3836 -0.626103 120.344 0.00705162C176.249 0.545645 222.874 31.6032 235.487 73.0584C245.989 65.3783 259.586 60.7941 274.429 60.938C295.122 61.1353 313.257 70.4723 323.796 84.4716C340.131 73.0748 364.833 65.9415 392.421 66.2047C423.313 66.5048 450.404 76.0145 466.092 90.1782C475.364 77.8112 489.945 69.9008 506.264 70.057C523.813 70.2256 539.156 79.6736 547.978 93.8292C561.624 91.5268 577.156 91.8886 593.127 95.4737C637.55 105.415 668.47 136.345 662.19 164.545C657.951 183.614 637.796 196.548 611.47 199.87L610.433 308L34.9862 302.458L36.3184 163.151C13.7154 145.616 -0.254731 121.071 0.0035197 94.01Z" fill="white"/>
</svg>
