<svg width="1470" height="504" viewBox="0 0 1470 504" fill="none" xmlns="http://www.w3.org/2000/svg">
<path opacity="0.1" d="M1436.69 219.976C1435.82 213.986 1436.16 207.882 1437.68 202.022C1439.21 196.163 1441.89 190.665 1445.57 185.852C1464.19 161.452 1473.26 132.515 1468.94 103.054C1458.94 34.7515 1380.93 -10.4429 1294.7 2.08615C1236.84 10.507 1189.99 42.7881 1168.43 83.7516C1159.94 99.8942 1142.86 109.713 1124.65 108.139C1117.71 107.545 1110.72 107.755 1103.82 108.765C1086.26 111.324 1070.8 118.698 1059.01 129.052C1053.48 133.885 1046.85 137.313 1039.7 139.042C1032.56 140.772 1025.09 140.752 1017.95 138.986C998.152 134.17 974.796 133.054 950.308 136.619C922.816 140.621 898.39 149.863 879.909 162.053C867.085 170.51 850.924 172.423 836.784 166.398C823.987 160.939 809.767 159.734 796.23 162.96C782.692 166.186 770.556 173.672 761.617 184.311C753.885 193.435 743.217 199.734 731.316 201.071C730.738 201.136 730.156 201.222 729.574 201.295C728.27 200.148 727.011 198.941 725.798 197.674C716.789 188.189 705.166 181.575 692.394 178.665C679.621 175.756 666.271 176.68 654.025 181.323C636.425 187.994 616.718 185.905 600.319 176.699C581.813 166.312 558.535 158.713 532.769 155.684C510.118 153.007 488.513 154.18 469.736 158.427C451.587 162.515 432.343 158.93 417.367 147.917C405.605 139.268 391.006 133.316 374.78 131.399C369.94 130.824 365.063 130.628 360.193 130.814C337.469 131.693 316.327 120.206 304.052 101.108C279.557 62.9203 232.718 34.0689 176.372 27.3894C87.7164 16.9043 9.07235 65.328 0.721311 135.548C-2.68552 164.162 6.13698 191.983 23.7738 215.615C33.5269 228.696 38.1226 244.871 36.1876 261.046L24.7659 357.068C22.799 373.624 27.5074 390.28 37.8555 403.375C48.2037 416.469 63.3443 424.93 79.9475 426.895L728.188 503.561C739.2 504.866 750.362 503.249 760.547 498.875C770.732 494.501 779.579 487.525 786.194 478.65L1415.08 387.129C1421.01 386.269 1426.71 384.253 1431.85 381.197C1436.99 378.141 1441.48 374.104 1445.06 369.318C1448.64 364.532 1451.24 359.089 1452.71 353.301C1454.18 347.514 1454.49 341.494 1453.62 335.587L1436.69 219.976Z" fill="white"/>
</svg>
