<svg width="31" height="35" viewBox="0 0 31 35" fill="none" xmlns="http://www.w3.org/2000/svg">
<g clip-path="url(#clip0_1110_387)">
<path d="M15.3125 13.8537C14.5914 13.854 13.8866 14.0681 13.2871 14.4689C12.6877 14.8697 12.2205 15.4393 11.9447 16.1056C11.669 16.7719 11.597 17.505 11.7378 18.2122C11.8787 18.9194 12.226 19.569 12.736 20.0788C13.246 20.5886 13.8957 20.9357 14.603 21.0763C15.3103 21.2169 16.0434 21.1446 16.7096 20.8686C17.3757 20.5926 17.9451 20.1252 18.3457 19.5256C18.7463 18.926 18.9602 18.2211 18.9602 17.5C18.9594 16.5329 18.5749 15.6057 17.8909 14.922C17.2069 14.2383 16.2796 13.8541 15.3125 13.8537ZM23.8376 11.051C23.652 10.5806 23.3717 10.1533 23.0141 9.7957C22.6565 9.4381 22.2292 9.15779 21.7588 8.97217C20.3232 8.40547 16.9053 8.53262 15.3125 8.53262C13.7197 8.53262 10.3052 8.40068 8.86553 8.97217C8.39511 9.15779 7.96784 9.4381 7.61025 9.7957C7.25265 10.1533 6.97234 10.5806 6.78672 11.051C6.2207 12.4865 6.34717 15.9079 6.34717 17.4993C6.34717 19.0907 6.2207 22.508 6.78945 23.9483C6.97508 24.4188 7.25538 24.846 7.61298 25.2036C7.97058 25.5612 8.39784 25.8415 8.86826 26.0271C10.3038 26.5938 13.7218 26.4667 15.3152 26.4667C16.9087 26.4667 20.3219 26.5986 21.7615 26.0271C22.2319 25.8415 22.6592 25.5612 23.0168 25.2036C23.3744 24.846 23.6547 24.4188 23.8403 23.9483C24.4111 22.5128 24.2799 19.0914 24.2799 17.5C24.2799 15.9086 24.4111 12.492 23.8403 11.0517L23.8376 11.051ZM15.3125 23.1055C14.2038 23.1055 13.1201 22.7767 12.1983 22.1608C11.2765 21.5448 10.558 20.6694 10.1337 19.6451C9.70946 18.6209 9.59845 17.4938 9.81474 16.4064C10.031 15.3191 10.5649 14.3203 11.3488 13.5363C12.1328 12.7524 13.1316 12.2185 14.2189 12.0022C15.3063 11.786 16.4334 11.897 17.4576 12.3212C18.4819 12.7455 19.3573 13.464 19.9733 14.3858C20.5892 15.3076 20.918 16.3913 20.918 17.5C20.9189 18.2364 20.7745 18.9657 20.4931 19.6462C20.2117 20.3267 19.7989 20.945 19.2782 21.4657C18.7575 21.9864 18.1392 22.3992 17.4587 22.6806C16.7782 22.962 16.0489 23.1064 15.3125 23.1055ZM21.149 12.9678C20.8902 12.9679 20.6372 12.8913 20.4219 12.7476C20.2067 12.6039 20.0389 12.3996 19.9397 12.1606C19.8406 11.9215 19.8146 11.6584 19.865 11.4045C19.9154 11.1507 20.04 10.9175 20.2229 10.7344C20.4059 10.5514 20.639 10.4267 20.8928 10.3762C21.1467 10.3256 21.4098 10.3515 21.6489 10.4505C21.888 10.5495 22.0924 10.7172 22.2362 10.9324C22.38 11.1476 22.4567 11.4006 22.4567 11.6594C22.4575 11.8312 22.4242 12.0016 22.359 12.1606C22.2937 12.3195 22.1977 12.4641 22.0765 12.5859C21.9553 12.7077 21.8112 12.8044 21.6525 12.8704C21.4938 12.9364 21.3236 12.9704 21.1518 12.9705L21.149 12.9678ZM27.3438 2.1875H3.28125C2.41101 2.1875 1.57641 2.5332 0.961056 3.14856C0.345702 3.76391 0 4.59851 0 5.46875L0 29.5312C0 30.4015 0.345702 31.2361 0.961056 31.8514C1.57641 32.4668 2.41101 32.8125 3.28125 32.8125H27.3438C28.214 32.8125 29.0486 32.4668 29.6639 31.8514C30.2793 31.2361 30.625 30.4015 30.625 29.5312V5.46875C30.625 4.59851 30.2793 3.76391 29.6639 3.14856C29.0486 2.5332 28.214 2.1875 27.3438 2.1875ZM26.1734 22.0117C26.0853 23.7638 25.6854 25.3162 24.4063 26.5918C23.1273 27.8674 21.5763 28.2755 19.8263 28.3589C18.0209 28.4607 12.6082 28.4607 10.8028 28.3589C9.05078 28.2707 7.50381 27.8701 6.22275 26.5918C4.9417 25.3135 4.53906 23.7604 4.45566 22.0117C4.35381 20.2057 4.35381 14.7923 4.45566 12.9883C4.54385 11.2362 4.93896 9.68379 6.22275 8.4082C7.50654 7.13262 9.05762 6.7293 10.8028 6.6459C12.6082 6.54404 18.0209 6.54404 19.8263 6.6459C21.5783 6.73408 23.1301 7.13467 24.4063 8.41299C25.6826 9.69131 26.09 11.2444 26.1734 12.9965C26.2753 14.7957 26.2753 20.2043 26.1734 22.0117Z" fill="white"/>
</g>
<defs>
<clipPath id="clip0_1110_387">
<rect width="30.625" height="35" fill="white"/>
</clipPath>
</defs>
</svg>
