<svg width="31" height="35" viewBox="0 0 31 35" fill="none" xmlns="http://www.w3.org/2000/svg">
<g clip-path="url(#clip0_1110_385)">
<path d="M15.5625 8.39453C10.5928 8.39453 6.55273 12.4346 6.5459 17.4043C6.5459 19.1064 7.02441 20.7676 7.92676 22.1963L8.13867 22.5381L7.22949 25.8604L10.6406 24.9648L10.9688 25.1631C12.3496 25.9834 13.9355 26.4209 15.5557 26.4209H15.5625C20.5254 26.4209 24.6748 22.3809 24.6748 17.4111C24.6748 15.0049 23.6357 12.7422 21.9336 11.04C20.2246 9.33105 17.9688 8.39453 15.5625 8.39453ZM20.8604 21.2734C20.6348 21.9092 19.5547 22.4834 19.0352 22.5586C18.1738 22.6885 17.5039 22.6201 15.7881 21.8818C13.0742 20.7061 11.2969 17.9717 11.1602 17.7939C11.0234 17.6162 10.0527 16.3242 10.0527 14.9912C10.0527 13.6582 10.75 13.002 11.0029 12.7285C11.249 12.4551 11.543 12.3867 11.7275 12.3867C11.9053 12.3867 12.0898 12.3867 12.2471 12.3936C12.4111 12.4004 12.6367 12.332 12.8555 12.8584C13.0811 13.3984 13.6211 14.7314 13.6895 14.8682C13.7578 15.0049 13.8057 15.1621 13.71 15.3398C13.1904 16.3789 12.6367 16.3379 12.917 16.8164C13.9629 18.6143 15.0088 19.2363 16.6016 20.0361C16.875 20.1729 17.0322 20.1523 17.1895 19.9678C17.3467 19.79 17.8662 19.1748 18.0439 18.9082C18.2217 18.6348 18.4062 18.6826 18.6523 18.7715C18.8984 18.8604 20.2314 19.5166 20.5049 19.6533C20.7783 19.79 20.9561 19.8584 21.0244 19.9678C21.0859 20.0977 21.0859 20.6445 20.8604 21.2734ZM27.5938 2.1875H3.53125C1.71973 2.1875 0.25 3.65723 0.25 5.46875V29.5312C0.25 31.3428 1.71973 32.8125 3.53125 32.8125H27.5938C29.4053 32.8125 30.875 31.3428 30.875 29.5312V5.46875C30.875 3.65723 29.4053 2.1875 27.5938 2.1875ZM15.5557 28.2461C13.7373 28.2461 11.9531 27.7881 10.374 26.9268L4.625 28.4375L6.16309 22.8184C5.21289 21.1777 4.71387 19.3115 4.71387 17.3975C4.7207 11.4229 9.58105 6.5625 15.5557 6.5625C18.4541 6.5625 21.1748 7.69043 23.2256 9.74121C25.2695 11.792 26.5 14.5127 26.5 17.4111C26.5 23.3857 21.5303 28.2461 15.5557 28.2461Z" fill="white"/>
</g>
<defs>
<clipPath id="clip0_1110_385">
<rect width="30.625" height="35" fill="white" transform="translate(0.25)"/>
</clipPath>
</defs>
</svg>
