<svg width="32" height="35" viewBox="0 0 32 35" fill="none" xmlns="http://www.w3.org/2000/svg">
<g clip-path="url(#clip0_1110_383)">
<path d="M13.374 20.0293C13.374 21.3486 12.417 21.7656 11.2412 21.7656H8.1582V18.1494H11.3027C12.5742 18.1562 13.374 18.6826 13.374 20.0293ZM12.8477 14.4033C12.8477 13.1934 11.9111 12.9062 10.8721 12.9062H8.16504V15.9688H11.084C12.1162 15.9688 12.8477 15.5176 12.8477 14.4033ZM21.8916 15.9893C20.6406 15.9893 19.8066 16.7686 19.7246 18.0195H23.9766C23.8604 16.7549 23.2041 15.9893 21.8916 15.9893ZM31.25 5.46875V29.5312C31.25 31.3428 29.7803 32.8125 27.9688 32.8125H3.90625C2.09473 32.8125 0.625 31.3428 0.625 29.5312V5.46875C0.625 3.65723 2.09473 2.1875 3.90625 2.1875H27.9688C29.7803 2.1875 31.25 3.65723 31.25 5.46875ZM19.1982 12.6465H24.5166V11.3545H19.1982V12.6465ZM16.2588 20.1865C16.2588 18.5391 15.4795 17.1172 13.8662 16.6592C15.042 16.0986 15.6572 15.4492 15.6572 14.1299C15.6572 11.5186 13.709 10.8828 11.46 10.8828H5.27344V24.0078H11.6377C14.0234 23.9941 16.2588 22.8525 16.2588 20.1865ZM26.6016 19.1748C26.6016 16.3652 24.9541 14.0205 21.9805 14.0205C19.082 14.0205 17.1201 16.1943 17.1201 19.0518C17.1201 22.0117 18.9863 24.042 21.9805 24.042C24.25 24.042 25.7197 23.0234 26.4307 20.8428H24.127C23.874 21.6562 22.8555 22.0801 22.0625 22.0801C20.5312 22.0801 19.7314 21.1846 19.7314 19.667H26.5811C26.5879 19.5098 26.6016 19.3389 26.6016 19.1748Z" fill="white"/>
</g>
<defs>
<clipPath id="clip0_1110_383">
<rect width="30.625" height="35" fill="white" transform="translate(0.625)"/>
</clipPath>
</defs>
</svg>
