<svg width="32" height="35" viewBox="0 0 32 35" fill="none" xmlns="http://www.w3.org/2000/svg">
<g clip-path="url(#clip0_1110_389)">
<path d="M28.2188 2.1875H4.15625C3.28601 2.1875 2.45141 2.5332 1.83606 3.14856C1.2207 3.76391 0.875 4.59851 0.875 5.46875L0.875 29.5312C0.875 30.4015 1.2207 31.2361 1.83606 31.8514C2.45141 32.4668 3.28601 32.8125 4.15625 32.8125H13.5386V22.4007H9.23193V17.5H13.5386V13.7648C13.5386 9.51631 16.0679 7.16953 19.9418 7.16953C21.7971 7.16953 23.7371 7.50039 23.7371 7.50039V11.6703H21.5995C19.4934 11.6703 18.8364 12.9773 18.8364 14.3179V17.5H23.5382L22.7862 22.4007H18.8364V32.8125H28.2188C29.089 32.8125 29.9236 32.4668 30.5389 31.8514C31.1543 31.2361 31.5 30.4015 31.5 29.5312V5.46875C31.5 4.59851 31.1543 3.76391 30.5389 3.14856C29.9236 2.5332 29.089 2.1875 28.2188 2.1875Z" fill="white"/>
</g>
<defs>
<clipPath id="clip0_1110_389">
<rect width="30.625" height="35" fill="white" transform="translate(0.875)"/>
</clipPath>
</defs>
</svg>
