<svg width="235" height="66" viewBox="0 0 235 66" fill="none" xmlns="http://www.w3.org/2000/svg">
<path d="M235 65.2744C235 66.7171 55.0081 65.5629 55.0081 65.5629C54.999 65.5315 54.999 65.4982 55.0081 65.4668C54.9698 65.5052 54.9315 65.5245 54.8932 65.5629H0.956995C0.330613 63.9569 0.00612423 62.2481 0 60.5232C0 51.0785 9.49339 43.4419 21.207 43.4419C24.1868 43.4325 27.1459 43.94 29.9539 44.9423C32.6144 39.4986 37.9735 35.8054 44.1557 35.8054C47.1287 35.8075 50.0361 36.6834 52.5199 38.3252C56.5584 16.4735 74.6647 0.00780477 96.3503 0.00780477C96.5096 -0.00260159 96.6694 -0.00260159 96.8288 0.00780477C113.576 0.16169 128.142 10.1835 135.625 24.8603C137.631 24.604 139.651 24.4755 141.674 24.4756C157.751 24.4756 171.436 32.266 176.355 43.1341C177.769 40.9013 179.716 39.0593 182.02 37.776C184.323 36.4926 186.909 35.8086 189.542 35.7861C193.21 35.7874 196.755 37.1116 199.533 39.5178C202.54 38.2501 205.767 37.5962 209.027 37.5943C219.42 37.5943 228.377 44.0959 232.531 53.4637C234.176 57.1806 235.018 61.2062 235 65.2744Z" fill="#DEE5F8"/>
<path opacity="0.4" d="M233 53.5772C224.878 56.3138 215.718 56.6607 207.039 56.8535C186.742 57.2967 165.159 57.4123 147.896 46.7355C141.905 43.0352 136.625 38.1207 130.173 35.3262C119.381 30.6238 105.498 31.8958 97.5675 23.2232C92.4214 17.6149 91.4997 8.51839 95.4361 1.98506C95.8588 1.28333 96.3406 0.619209 96.8763 0C113.678 0.154179 128.291 10.1951 135.799 24.8999C137.811 24.6431 139.838 24.5144 141.867 24.5144C157.997 24.5144 171.726 32.3198 176.661 43.2086C178.08 40.9715 180.033 39.126 182.344 37.8402C184.655 36.5544 187.249 35.8691 189.891 35.8466C193.571 35.8478 197.128 37.1745 199.915 39.5854C202.931 38.3152 206.168 37.6601 209.439 37.6582C219.847 37.6775 228.833 44.1722 233 53.5772Z" fill="white"/>
</svg>
