<svg width="159" height="45" viewBox="0 0 159 45" fill="none" xmlns="http://www.w3.org/2000/svg">
<path d="M159 41.2517C158.999 42.4314 158.778 43.6003 158.35 44.6974H121.869C121.835 44.6823 121.808 44.6546 121.793 44.62C121.793 44.6587 121.793 44.678 121.793 44.6974C121.793 44.7167 0 45.4911 0 44.4845C0 34.0699 7.85823 25.6105 17.5711 25.6105C19.7708 25.6187 21.9474 26.066 23.9762 26.9268C25.8571 25.297 28.2497 24.398 30.7255 24.391C32.5086 24.4066 34.2597 24.8734 35.8192 25.7491C37.3786 26.6248 38.6971 27.8814 39.6544 29.4047C42.2929 23.5199 48.6598 18.9707 56.6136 17.364C58.7576 16.9086 60.9428 16.6816 63.1335 16.6865C64.5013 16.6818 65.868 16.7658 67.2251 16.9382C72.3301 6.8527 82.3106 0 93.7825 0C108.466 0 120.703 11.2469 123.418 26.1332C125.102 25.004 127.077 24.4045 129.097 24.4103C131.115 24.4357 133.085 25.0355 134.783 26.1412C136.48 27.2469 137.836 28.8139 138.695 30.6629C140.596 29.9697 142.601 29.616 144.622 29.6176C152.557 29.5982 159 34.8249 159 41.2517Z" fill="#DEE5F8"/>
<path opacity="0.4" d="M159 40.6081C158.999 41.7693 158.779 42.92 158.353 44H137.294C135.999 41.9801 135.085 39.7124 133.486 37.8831C126.288 29.6509 111.304 36.2443 102.621 29.6128C101.041 28.4123 99.765 26.8307 98.1275 25.7254C93.0818 22.3906 86.3795 24.4678 80.515 26.0684C74.5363 27.7073 67.796 28.6029 62.4266 25.4968C60.9532 24.5896 59.7012 23.3641 58.7623 21.91C57.8233 20.456 57.2212 18.8102 57 17.0931C59.1351 16.6448 61.3112 16.4213 63.4928 16.4262C64.8549 16.4215 66.216 16.5042 67.5675 16.6739C72.6513 6.74578 82.5904 0 94.0147 0C108.638 0 120.824 11.0715 123.528 25.7254C125.204 24.6139 127.172 24.0238 129.183 24.0295C131.192 24.0544 133.155 24.6449 134.845 25.7334C136.535 26.8218 137.885 28.3643 138.741 30.1845C140.634 29.5021 142.631 29.1539 144.643 29.1555C152.583 29.1364 159 34.2815 159 40.6081Z" fill="white"/>
</svg>
