<svg width="243" height="68" viewBox="0 0 243 68" fill="none" xmlns="http://www.w3.org/2000/svg">
<path d="M243 62.3485C243.002 64.1267 242.677 65.8903 242.041 67.5506H186.255C186.216 67.5122 186.197 67.4738 186.159 67.4354C186.155 67.4762 186.142 67.5155 186.12 67.5506C186.12 67.5506 184.624 67.5506 181.919 67.589C154.314 67.7425 0 68.6063 0 67.2434C0 51.5027 12.0282 38.7566 26.8572 38.7566C30.2286 38.751 33.5674 39.4166 36.6793 40.7146C39.5494 38.24 43.2115 36.8778 47.0001 36.8754C49.7258 36.8979 52.4023 37.6036 54.7851 38.9282C57.1678 40.2528 59.1807 42.154 60.6397 44.4578C60.6781 44.3811 60.7164 44.2851 60.7548 44.2083C63.6324 38.0848 69.234 32.9211 76.4855 29.5426C82.7658 26.6557 89.6021 25.1814 96.5133 25.2235C98.5974 25.2249 100.679 25.3531 102.748 25.6074C110.556 10.3658 125.807 0 143.341 0C165.766 0 184.49 16.9692 188.653 39.4669C191.225 37.7656 194.24 36.8578 197.324 36.8562C203.712 36.8562 209.256 40.6954 211.999 46.3006C214.898 45.2627 217.956 44.7366 221.035 44.7458C229.706 44.7458 237.187 48.7769 240.756 54.6125C242.207 56.9325 242.984 59.6113 243 62.3485Z" fill="#DEE5F8"/>
<path opacity="0.4" d="M241 55C233.884 53.0675 226.269 53.1448 218.826 53.2414L169.011 53.8212C149.12 54.0531 131.396 42.5931 111.064 44.4483C101.32 45.3566 91.4028 49.357 82.0421 49.9174C74.6189 50.3619 65.5844 49.0284 61 44.5063C63.8772 38.3415 69.4783 33.143 76.7289 29.7417C83.0085 26.8354 89.8441 25.3511 96.7545 25.3935C98.8384 25.3949 100.92 25.524 102.989 25.78C110.795 10.4357 126.045 0 143.577 0C166 0 184.721 17.0836 188.884 39.7329C191.456 38.0202 194.471 37.1063 197.554 37.1047C203.941 37.1047 209.485 40.9698 212.228 46.6128C215.126 45.5679 218.183 45.0382 221.262 45.0474C229.951 45.0861 237.432 49.1251 241 55Z" fill="white"/>
</svg>
